<?xml version="1.0" encoding="utf-8" standalone="no"?>
<!DOCTYPE svg PUBLIC "-//W3C//DTD SVG 1.1//EN"
  "http://www.w3.org/Graphics/SVG/1.1/DTD/svg11.dtd">
<!-- Created with matplotlib (https://matplotlib.org/) -->
<svg height="155.637344pt" version="1.1" viewBox="0 0 311.529375 155.637344" width="311.529375pt" xmlns="http://www.w3.org/2000/svg" xmlns:xlink="http://www.w3.org/1999/xlink">
 <defs>
  <style type="text/css">
*{stroke-linecap:butt;stroke-linejoin:round;}
  </style>
 </defs>
 <g id="figure_1">
  <g id="patch_1">
   <path d="M 0 155.637344 
L 311.529375 155.637344 
L 311.529375 0 
L 0 0 
z
" style="fill:#ffffff;"/>
  </g>
  <g id="axes_1">
   <g id="patch_2">
    <path d="M 50.14375 118.081094 
L 273.34375 118.081094 
L 273.34375 9.361094 
L 50.14375 9.361094 
z
" style="fill:#ffffff;"/>
   </g>
   <g id="matplotlib.axis_1">
    <g id="xtick_1">
     <g id="line2d_1">
      <defs>
       <path d="M 0 0 
L 0 3.5 
" id="m80e9fdc8e2" style="stroke:#000000;stroke-width:0.8;"/>
      </defs>
      <g>
       <use style="stroke:#000000;stroke-width:0.8;" x="50.14375" xlink:href="#m80e9fdc8e2" y="118.081094"/>
      </g>
     </g>
     <g id="text_1">
      <!-- $10^{-1}$ -->
      <defs>
       <path d="M 12.40625 8.296875 
L 28.515625 8.296875 
L 28.515625 63.921875 
L 10.984375 60.40625 
L 10.984375 69.390625 
L 28.421875 72.90625 
L 38.28125 72.90625 
L 38.28125 8.296875 
L 54.390625 8.296875 
L 54.390625 0 
L 12.40625 0 
z
" id="DejaVuSans-49"/>
       <path d="M 31.78125 66.40625 
Q 24.171875 66.40625 20.328125 58.90625 
Q 16.5 51.421875 16.5 36.375 
Q 16.5 21.390625 20.328125 13.890625 
Q 24.171875 6.390625 31.78125 6.390625 
Q 39.453125 6.390625 43.28125 13.890625 
Q 47.125 21.390625 47.125 36.375 
Q 47.125 51.421875 43.28125 58.90625 
Q 39.453125 66.40625 31.78125 66.40625 
z
M 31.78125 74.21875 
Q 44.046875 74.21875 50.515625 64.515625 
Q 56.984375 54.828125 56.984375 36.375 
Q 56.984375 17.96875 50.515625 8.265625 
Q 44.046875 -1.421875 31.78125 -1.421875 
Q 19.53125 -1.421875 13.0625 8.265625 
Q 6.59375 17.96875 6.59375 36.375 
Q 6.59375 54.828125 13.0625 64.515625 
Q 19.53125 74.21875 31.78125 74.21875 
z
" id="DejaVuSans-48"/>
       <path d="M 10.59375 35.5 
L 73.1875 35.5 
L 73.1875 27.203125 
L 10.59375 27.203125 
z
" id="DejaVuSans-8722"/>
      </defs>
      <g transform="translate(38.39375 132.679531)scale(0.1 -0.1)">
       <use transform="translate(0 0.684375)" xlink:href="#DejaVuSans-49"/>
       <use transform="translate(63.623047 0.684375)" xlink:href="#DejaVuSans-48"/>
       <use transform="translate(128.203125 38.965625)scale(0.7)" xlink:href="#DejaVuSans-8722"/>
       <use transform="translate(186.855469 38.965625)scale(0.7)" xlink:href="#DejaVuSans-49"/>
      </g>
     </g>
    </g>
    <g id="xtick_2">
     <g id="line2d_2">
      <g>
       <use style="stroke:#000000;stroke-width:0.8;" x="96.42453" xlink:href="#m80e9fdc8e2" y="118.081094"/>
      </g>
     </g>
     <g id="text_2">
      <!-- $0.3$ -->
      <defs>
       <path d="M 10.6875 12.40625 
L 21 12.40625 
L 21 0 
L 10.6875 0 
z
" id="DejaVuSans-46"/>
       <path d="M 40.578125 39.3125 
Q 47.65625 37.796875 51.625 33 
Q 55.609375 28.21875 55.609375 21.1875 
Q 55.609375 10.40625 48.1875 4.484375 
Q 40.765625 -1.421875 27.09375 -1.421875 
Q 22.515625 -1.421875 17.65625 -0.515625 
Q 12.796875 0.390625 7.625 2.203125 
L 7.625 11.71875 
Q 11.71875 9.328125 16.59375 8.109375 
Q 21.484375 6.890625 26.8125 6.890625 
Q 36.078125 6.890625 40.9375 10.546875 
Q 45.796875 14.203125 45.796875 21.1875 
Q 45.796875 27.640625 41.28125 31.265625 
Q 36.765625 34.90625 28.71875 34.90625 
L 20.21875 34.90625 
L 20.21875 43.015625 
L 29.109375 43.015625 
Q 36.375 43.015625 40.234375 45.921875 
Q 44.09375 48.828125 44.09375 54.296875 
Q 44.09375 59.90625 40.109375 62.90625 
Q 36.140625 65.921875 28.71875 65.921875 
Q 24.65625 65.921875 20.015625 65.03125 
Q 15.375 64.15625 9.8125 62.3125 
L 9.8125 71.09375 
Q 15.4375 72.65625 20.34375 73.4375 
Q 25.25 74.21875 29.59375 74.21875 
Q 40.828125 74.21875 47.359375 69.109375 
Q 53.90625 64.015625 53.90625 55.328125 
Q 53.90625 49.265625 50.4375 45.09375 
Q 46.96875 40.921875 40.578125 39.3125 
z
" id="DejaVuSans-51"/>
      </defs>
      <g transform="translate(88.42453 132.679531)scale(0.1 -0.1)">
       <use transform="translate(0 0.78125)" xlink:href="#DejaVuSans-48"/>
       <use transform="translate(63.623047 0.78125)" xlink:href="#DejaVuSans-46"/>
       <use transform="translate(95.410156 0.78125)" xlink:href="#DejaVuSans-51"/>
      </g>
     </g>
    </g>
    <g id="xtick_3">
     <g id="line2d_3">
      <g>
       <use style="stroke:#000000;stroke-width:0.8;" x="147.143789" xlink:href="#m80e9fdc8e2" y="118.081094"/>
      </g>
     </g>
     <g id="text_3">
      <!-- $10^0$ -->
      <g transform="translate(138.343789 132.679531)scale(0.1 -0.1)">
       <use transform="translate(0 0.765625)" xlink:href="#DejaVuSans-49"/>
       <use transform="translate(63.623047 0.765625)" xlink:href="#DejaVuSans-48"/>
       <use transform="translate(128.203125 39.046875)scale(0.7)" xlink:href="#DejaVuSans-48"/>
      </g>
     </g>
    </g>
    <g id="xtick_4">
     <g id="line2d_4">
      <g>
       <use style="stroke:#000000;stroke-width:0.8;" x="193.42457" xlink:href="#m80e9fdc8e2" y="118.081094"/>
      </g>
     </g>
     <g id="text_4">
      <!-- $3$ -->
      <g transform="translate(190.22457 132.679531)scale(0.1 -0.1)">
       <use transform="translate(0 0.78125)" xlink:href="#DejaVuSans-51"/>
      </g>
     </g>
    </g>
    <g id="xtick_5">
     <g id="line2d_5">
      <g>
       <use style="stroke:#000000;stroke-width:0.8;" x="244.143829" xlink:href="#m80e9fdc8e2" y="118.081094"/>
      </g>
     </g>
     <g id="text_5">
      <!-- $10^1$ -->
      <g transform="translate(235.343829 132.679531)scale(0.1 -0.1)">
       <use transform="translate(0 0.684375)" xlink:href="#DejaVuSans-49"/>
       <use transform="translate(63.623047 0.684375)" xlink:href="#DejaVuSans-48"/>
       <use transform="translate(128.203125 38.965625)scale(0.7)" xlink:href="#DejaVuSans-49"/>
      </g>
     </g>
    </g>
    <g id="xtick_6">
     <g id="line2d_6">
      <defs>
       <path d="M 0 0 
L 0 2 
" id="m4fb11230a8" style="stroke:#000000;stroke-width:0.6;"/>
      </defs>
      <g>
       <use style="stroke:#000000;stroke-width:0.6;" x="79.343671" xlink:href="#m4fb11230a8" y="118.081094"/>
      </g>
     </g>
    </g>
    <g id="xtick_7">
     <g id="line2d_7">
      <g>
       <use style="stroke:#000000;stroke-width:0.6;" x="108.543593" xlink:href="#m4fb11230a8" y="118.081094"/>
      </g>
     </g>
    </g>
    <g id="xtick_8">
     <g id="line2d_8">
      <g>
       <use style="stroke:#000000;stroke-width:0.6;" x="117.943868" xlink:href="#m4fb11230a8" y="118.081094"/>
      </g>
     </g>
    </g>
    <g id="xtick_9">
     <g id="line2d_9">
      <g>
       <use style="stroke:#000000;stroke-width:0.6;" x="125.624452" xlink:href="#m4fb11230a8" y="118.081094"/>
      </g>
     </g>
    </g>
    <g id="xtick_10">
     <g id="line2d_10">
      <g>
       <use style="stroke:#000000;stroke-width:0.6;" x="132.118293" xlink:href="#m4fb11230a8" y="118.081094"/>
      </g>
     </g>
    </g>
    <g id="xtick_11">
     <g id="line2d_11">
      <g>
       <use style="stroke:#000000;stroke-width:0.6;" x="137.743514" xlink:href="#m4fb11230a8" y="118.081094"/>
      </g>
     </g>
    </g>
    <g id="xtick_12">
     <g id="line2d_12">
      <g>
       <use style="stroke:#000000;stroke-width:0.6;" x="142.705311" xlink:href="#m4fb11230a8" y="118.081094"/>
      </g>
     </g>
    </g>
    <g id="xtick_13">
     <g id="line2d_13">
      <g>
       <use style="stroke:#000000;stroke-width:0.6;" x="176.343711" xlink:href="#m4fb11230a8" y="118.081094"/>
      </g>
     </g>
    </g>
    <g id="xtick_14">
     <g id="line2d_14">
      <g>
       <use style="stroke:#000000;stroke-width:0.6;" x="205.543632" xlink:href="#m4fb11230a8" y="118.081094"/>
      </g>
     </g>
    </g>
    <g id="xtick_15">
     <g id="line2d_15">
      <g>
       <use style="stroke:#000000;stroke-width:0.6;" x="214.943907" xlink:href="#m4fb11230a8" y="118.081094"/>
      </g>
     </g>
    </g>
    <g id="xtick_16">
     <g id="line2d_16">
      <g>
       <use style="stroke:#000000;stroke-width:0.6;" x="222.624491" xlink:href="#m4fb11230a8" y="118.081094"/>
      </g>
     </g>
    </g>
    <g id="xtick_17">
     <g id="line2d_17">
      <g>
       <use style="stroke:#000000;stroke-width:0.6;" x="229.118332" xlink:href="#m4fb11230a8" y="118.081094"/>
      </g>
     </g>
    </g>
    <g id="xtick_18">
     <g id="line2d_18">
      <g>
       <use style="stroke:#000000;stroke-width:0.6;" x="234.743554" xlink:href="#m4fb11230a8" y="118.081094"/>
      </g>
     </g>
    </g>
    <g id="xtick_19">
     <g id="line2d_19">
      <g>
       <use style="stroke:#000000;stroke-width:0.6;" x="239.70535" xlink:href="#m4fb11230a8" y="118.081094"/>
      </g>
     </g>
    </g>
    <g id="xtick_20">
     <g id="line2d_20">
      <g>
       <use style="stroke:#000000;stroke-width:0.6;" x="273.34375" xlink:href="#m4fb11230a8" y="118.081094"/>
      </g>
     </g>
    </g>
    <g id="text_6">
     <!-- Frequency (Hz) -->
     <defs>
      <path d="M 9.8125 72.90625 
L 51.703125 72.90625 
L 51.703125 64.59375 
L 19.671875 64.59375 
L 19.671875 43.109375 
L 48.578125 43.109375 
L 48.578125 34.8125 
L 19.671875 34.8125 
L 19.671875 0 
L 9.8125 0 
z
" id="DejaVuSans-70"/>
      <path d="M 41.109375 46.296875 
Q 39.59375 47.171875 37.8125 47.578125 
Q 36.03125 48 33.890625 48 
Q 26.265625 48 22.1875 43.046875 
Q 18.109375 38.09375 18.109375 28.8125 
L 18.109375 0 
L 9.078125 0 
L 9.078125 54.6875 
L 18.109375 54.6875 
L 18.109375 46.1875 
Q 20.953125 51.171875 25.484375 53.578125 
Q 30.03125 56 36.53125 56 
Q 37.453125 56 38.578125 55.875 
Q 39.703125 55.765625 41.0625 55.515625 
z
" id="DejaVuSans-114"/>
      <path d="M 56.203125 29.59375 
L 56.203125 25.203125 
L 14.890625 25.203125 
Q 15.484375 15.921875 20.484375 11.0625 
Q 25.484375 6.203125 34.421875 6.203125 
Q 39.59375 6.203125 44.453125 7.46875 
Q 49.3125 8.734375 54.109375 11.28125 
L 54.109375 2.78125 
Q 49.265625 0.734375 44.1875 -0.34375 
Q 39.109375 -1.421875 33.890625 -1.421875 
Q 20.796875 -1.421875 13.15625 6.1875 
Q 5.515625 13.8125 5.515625 26.8125 
Q 5.515625 40.234375 12.765625 48.109375 
Q 20.015625 56 32.328125 56 
Q 43.359375 56 49.78125 48.890625 
Q 56.203125 41.796875 56.203125 29.59375 
z
M 47.21875 32.234375 
Q 47.125 39.59375 43.09375 43.984375 
Q 39.0625 48.390625 32.421875 48.390625 
Q 24.90625 48.390625 20.390625 44.140625 
Q 15.875 39.890625 15.1875 32.171875 
z
" id="DejaVuSans-101"/>
      <path d="M 14.796875 27.296875 
Q 14.796875 17.390625 18.875 11.75 
Q 22.953125 6.109375 30.078125 6.109375 
Q 37.203125 6.109375 41.296875 11.75 
Q 45.40625 17.390625 45.40625 27.296875 
Q 45.40625 37.203125 41.296875 42.84375 
Q 37.203125 48.484375 30.078125 48.484375 
Q 22.953125 48.484375 18.875 42.84375 
Q 14.796875 37.203125 14.796875 27.296875 
z
M 45.40625 8.203125 
Q 42.578125 3.328125 38.25 0.953125 
Q 33.9375 -1.421875 27.875 -1.421875 
Q 17.96875 -1.421875 11.734375 6.484375 
Q 5.515625 14.40625 5.515625 27.296875 
Q 5.515625 40.1875 11.734375 48.09375 
Q 17.96875 56 27.875 56 
Q 33.9375 56 38.25 53.625 
Q 42.578125 51.265625 45.40625 46.390625 
L 45.40625 54.6875 
L 54.390625 54.6875 
L 54.390625 -20.796875 
L 45.40625 -20.796875 
z
" id="DejaVuSans-113"/>
      <path d="M 8.5 21.578125 
L 8.5 54.6875 
L 17.484375 54.6875 
L 17.484375 21.921875 
Q 17.484375 14.15625 20.5 10.265625 
Q 23.53125 6.390625 29.59375 6.390625 
Q 36.859375 6.390625 41.078125 11.03125 
Q 45.3125 15.671875 45.3125 23.6875 
L 45.3125 54.6875 
L 54.296875 54.6875 
L 54.296875 0 
L 45.3125 0 
L 45.3125 8.40625 
Q 42.046875 3.421875 37.71875 1 
Q 33.40625 -1.421875 27.6875 -1.421875 
Q 18.265625 -1.421875 13.375 4.4375 
Q 8.5 10.296875 8.5 21.578125 
z
M 31.109375 56 
z
" id="DejaVuSans-117"/>
      <path d="M 54.890625 33.015625 
L 54.890625 0 
L 45.90625 0 
L 45.90625 32.71875 
Q 45.90625 40.484375 42.875 44.328125 
Q 39.84375 48.1875 33.796875 48.1875 
Q 26.515625 48.1875 22.3125 43.546875 
Q 18.109375 38.921875 18.109375 30.90625 
L 18.109375 0 
L 9.078125 0 
L 9.078125 54.6875 
L 18.109375 54.6875 
L 18.109375 46.1875 
Q 21.34375 51.125 25.703125 53.5625 
Q 30.078125 56 35.796875 56 
Q 45.21875 56 50.046875 50.171875 
Q 54.890625 44.34375 54.890625 33.015625 
z
" id="DejaVuSans-110"/>
      <path d="M 48.78125 52.59375 
L 48.78125 44.1875 
Q 44.96875 46.296875 41.140625 47.34375 
Q 37.3125 48.390625 33.40625 48.390625 
Q 24.65625 48.390625 19.8125 42.84375 
Q 14.984375 37.3125 14.984375 27.296875 
Q 14.984375 17.28125 19.8125 11.734375 
Q 24.65625 6.203125 33.40625 6.203125 
Q 37.3125 6.203125 41.140625 7.25 
Q 44.96875 8.296875 48.78125 10.40625 
L 48.78125 2.09375 
Q 45.015625 0.34375 40.984375 -0.53125 
Q 36.96875 -1.421875 32.421875 -1.421875 
Q 20.0625 -1.421875 12.78125 6.34375 
Q 5.515625 14.109375 5.515625 27.296875 
Q 5.515625 40.671875 12.859375 48.328125 
Q 20.21875 56 33.015625 56 
Q 37.15625 56 41.109375 55.140625 
Q 45.0625 54.296875 48.78125 52.59375 
z
" id="DejaVuSans-99"/>
      <path d="M 32.171875 -5.078125 
Q 28.375 -14.84375 24.75 -17.8125 
Q 21.140625 -20.796875 15.09375 -20.796875 
L 7.90625 -20.796875 
L 7.90625 -13.28125 
L 13.1875 -13.28125 
Q 16.890625 -13.28125 18.9375 -11.515625 
Q 21 -9.765625 23.484375 -3.21875 
L 25.09375 0.875 
L 2.984375 54.6875 
L 12.5 54.6875 
L 29.59375 11.921875 
L 46.6875 54.6875 
L 56.203125 54.6875 
z
" id="DejaVuSans-121"/>
      <path id="DejaVuSans-32"/>
      <path d="M 31 75.875 
Q 24.46875 64.65625 21.28125 53.65625 
Q 18.109375 42.671875 18.109375 31.390625 
Q 18.109375 20.125 21.3125 9.0625 
Q 24.515625 -2 31 -13.1875 
L 23.1875 -13.1875 
Q 15.875 -1.703125 12.234375 9.375 
Q 8.59375 20.453125 8.59375 31.390625 
Q 8.59375 42.28125 12.203125 53.3125 
Q 15.828125 64.359375 23.1875 75.875 
z
" id="DejaVuSans-40"/>
      <path d="M 9.8125 72.90625 
L 19.671875 72.90625 
L 19.671875 43.015625 
L 55.515625 43.015625 
L 55.515625 72.90625 
L 65.375 72.90625 
L 65.375 0 
L 55.515625 0 
L 55.515625 34.71875 
L 19.671875 34.71875 
L 19.671875 0 
L 9.8125 0 
z
" id="DejaVuSans-72"/>
      <path d="M 5.515625 54.6875 
L 48.1875 54.6875 
L 48.1875 46.484375 
L 14.40625 7.171875 
L 48.1875 7.171875 
L 48.1875 0 
L 4.296875 0 
L 4.296875 8.203125 
L 38.09375 47.515625 
L 5.515625 47.515625 
z
" id="DejaVuSans-122"/>
      <path d="M 8.015625 75.875 
L 15.828125 75.875 
Q 23.140625 64.359375 26.78125 53.3125 
Q 30.421875 42.28125 30.421875 31.390625 
Q 30.421875 20.453125 26.78125 9.375 
Q 23.140625 -1.703125 15.828125 -13.1875 
L 8.015625 -13.1875 
Q 14.5 -2 17.703125 9.0625 
Q 20.90625 20.125 20.90625 31.390625 
Q 20.90625 42.671875 17.703125 53.65625 
Q 14.5 64.65625 8.015625 75.875 
z
" id="DejaVuSans-41"/>
     </defs>
     <g transform="translate(123.571094 146.357656)scale(0.1 -0.1)">
      <use xlink:href="#DejaVuSans-70"/>
      <use x="57.410156" xlink:href="#DejaVuSans-114"/>
      <use x="98.492188" xlink:href="#DejaVuSans-101"/>
      <use x="160.015625" xlink:href="#DejaVuSans-113"/>
      <use x="223.492188" xlink:href="#DejaVuSans-117"/>
      <use x="286.871094" xlink:href="#DejaVuSans-101"/>
      <use x="348.394531" xlink:href="#DejaVuSans-110"/>
      <use x="411.773438" xlink:href="#DejaVuSans-99"/>
      <use x="466.753906" xlink:href="#DejaVuSans-121"/>
      <use x="525.933594" xlink:href="#DejaVuSans-32"/>
      <use x="557.720703" xlink:href="#DejaVuSans-40"/>
      <use x="596.734375" xlink:href="#DejaVuSans-72"/>
      <use x="671.929688" xlink:href="#DejaVuSans-122"/>
      <use x="724.419922" xlink:href="#DejaVuSans-41"/>
     </g>
    </g>
   </g>
   <g id="matplotlib.axis_2">
    <g id="ytick_1">
     <g id="line2d_21">
      <defs>
       <path d="M 0 0 
L -3.5 0 
" id="m38017acb43" style="stroke:#000000;stroke-width:0.8;"/>
      </defs>
      <g>
       <use style="stroke:#000000;stroke-width:0.8;" x="50.14375" xlink:href="#m38017acb43" y="113.704243"/>
      </g>
     </g>
     <g id="text_7">
      <!-- 0.00 -->
      <g transform="translate(20.878125 117.503461)scale(0.1 -0.1)">
       <use xlink:href="#DejaVuSans-48"/>
       <use x="63.623047" xlink:href="#DejaVuSans-46"/>
       <use x="95.410156" xlink:href="#DejaVuSans-48"/>
       <use x="159.033203" xlink:href="#DejaVuSans-48"/>
      </g>
     </g>
    </g>
    <g id="ytick_2">
     <g id="line2d_22">
      <g>
       <use style="stroke:#000000;stroke-width:0.8;" x="50.14375" xlink:href="#m38017acb43" y="88.853921"/>
      </g>
     </g>
     <g id="text_8">
      <!-- 0.25 -->
      <defs>
       <path d="M 19.1875 8.296875 
L 53.609375 8.296875 
L 53.609375 0 
L 7.328125 0 
L 7.328125 8.296875 
Q 12.9375 14.109375 22.625 23.890625 
Q 32.328125 33.6875 34.8125 36.53125 
Q 39.546875 41.84375 41.421875 45.53125 
Q 43.3125 49.21875 43.3125 52.78125 
Q 43.3125 58.59375 39.234375 62.25 
Q 35.15625 65.921875 28.609375 65.921875 
Q 23.96875 65.921875 18.8125 64.3125 
Q 13.671875 62.703125 7.8125 59.421875 
L 7.8125 69.390625 
Q 13.765625 71.78125 18.9375 73 
Q 24.125 74.21875 28.421875 74.21875 
Q 39.75 74.21875 46.484375 68.546875 
Q 53.21875 62.890625 53.21875 53.421875 
Q 53.21875 48.921875 51.53125 44.890625 
Q 49.859375 40.875 45.40625 35.40625 
Q 44.1875 33.984375 37.640625 27.21875 
Q 31.109375 20.453125 19.1875 8.296875 
z
" id="DejaVuSans-50"/>
       <path d="M 10.796875 72.90625 
L 49.515625 72.90625 
L 49.515625 64.59375 
L 19.828125 64.59375 
L 19.828125 46.734375 
Q 21.96875 47.46875 24.109375 47.828125 
Q 26.265625 48.1875 28.421875 48.1875 
Q 40.625 48.1875 47.75 41.5 
Q 54.890625 34.8125 54.890625 23.390625 
Q 54.890625 11.625 47.5625 5.09375 
Q 40.234375 -1.421875 26.90625 -1.421875 
Q 22.3125 -1.421875 17.546875 -0.640625 
Q 12.796875 0.140625 7.71875 1.703125 
L 7.71875 11.625 
Q 12.109375 9.234375 16.796875 8.0625 
Q 21.484375 6.890625 26.703125 6.890625 
Q 35.15625 6.890625 40.078125 11.328125 
Q 45.015625 15.765625 45.015625 23.390625 
Q 45.015625 31 40.078125 35.4375 
Q 35.15625 39.890625 26.703125 39.890625 
Q 22.75 39.890625 18.8125 39.015625 
Q 14.890625 38.140625 10.796875 36.28125 
z
" id="DejaVuSans-53"/>
      </defs>
      <g transform="translate(20.878125 92.653139)scale(0.1 -0.1)">
       <use xlink:href="#DejaVuSans-48"/>
       <use x="63.623047" xlink:href="#DejaVuSans-46"/>
       <use x="95.410156" xlink:href="#DejaVuSans-50"/>
       <use x="159.033203" xlink:href="#DejaVuSans-53"/>
      </g>
     </g>
    </g>
    <g id="ytick_3">
     <g id="line2d_23">
      <g>
       <use style="stroke:#000000;stroke-width:0.8;" x="50.14375" xlink:href="#m38017acb43" y="64.003599"/>
      </g>
     </g>
     <g id="text_9">
      <!-- 0.50 -->
      <g transform="translate(20.878125 67.802817)scale(0.1 -0.1)">
       <use xlink:href="#DejaVuSans-48"/>
       <use x="63.623047" xlink:href="#DejaVuSans-46"/>
       <use x="95.410156" xlink:href="#DejaVuSans-53"/>
       <use x="159.033203" xlink:href="#DejaVuSans-48"/>
      </g>
     </g>
    </g>
    <g id="ytick_4">
     <g id="line2d_24">
      <g>
       <use style="stroke:#000000;stroke-width:0.8;" x="50.14375" xlink:href="#m38017acb43" y="39.153277"/>
      </g>
     </g>
     <g id="text_10">
      <!-- 0.75 -->
      <defs>
       <path d="M 8.203125 72.90625 
L 55.078125 72.90625 
L 55.078125 68.703125 
L 28.609375 0 
L 18.3125 0 
L 43.21875 64.59375 
L 8.203125 64.59375 
z
" id="DejaVuSans-55"/>
      </defs>
      <g transform="translate(20.878125 42.952496)scale(0.1 -0.1)">
       <use xlink:href="#DejaVuSans-48"/>
       <use x="63.623047" xlink:href="#DejaVuSans-46"/>
       <use x="95.410156" xlink:href="#DejaVuSans-55"/>
       <use x="159.033203" xlink:href="#DejaVuSans-53"/>
      </g>
     </g>
    </g>
    <g id="ytick_5">
     <g id="line2d_25">
      <g>
       <use style="stroke:#000000;stroke-width:0.8;" x="50.14375" xlink:href="#m38017acb43" y="14.302955"/>
      </g>
     </g>
     <g id="text_11">
      <!-- 1.00 -->
      <g transform="translate(20.878125 18.102174)scale(0.1 -0.1)">
       <use xlink:href="#DejaVuSans-49"/>
       <use x="63.623047" xlink:href="#DejaVuSans-46"/>
       <use x="95.410156" xlink:href="#DejaVuSans-48"/>
       <use x="159.033203" xlink:href="#DejaVuSans-48"/>
      </g>
     </g>
    </g>
    <g id="text_12">
     <!-- Normalized Magnitude -->
     <defs>
      <path d="M 9.8125 72.90625 
L 23.09375 72.90625 
L 55.421875 11.921875 
L 55.421875 72.90625 
L 64.984375 72.90625 
L 64.984375 0 
L 51.703125 0 
L 19.390625 60.984375 
L 19.390625 0 
L 9.8125 0 
z
" id="DejaVuSans-78"/>
      <path d="M 30.609375 48.390625 
Q 23.390625 48.390625 19.1875 42.75 
Q 14.984375 37.109375 14.984375 27.296875 
Q 14.984375 17.484375 19.15625 11.84375 
Q 23.34375 6.203125 30.609375 6.203125 
Q 37.796875 6.203125 41.984375 11.859375 
Q 46.1875 17.53125 46.1875 27.296875 
Q 46.1875 37.015625 41.984375 42.703125 
Q 37.796875 48.390625 30.609375 48.390625 
z
M 30.609375 56 
Q 42.328125 56 49.015625 48.375 
Q 55.71875 40.765625 55.71875 27.296875 
Q 55.71875 13.875 49.015625 6.21875 
Q 42.328125 -1.421875 30.609375 -1.421875 
Q 18.84375 -1.421875 12.171875 6.21875 
Q 5.515625 13.875 5.515625 27.296875 
Q 5.515625 40.765625 12.171875 48.375 
Q 18.84375 56 30.609375 56 
z
" id="DejaVuSans-111"/>
      <path d="M 52 44.1875 
Q 55.375 50.25 60.0625 53.125 
Q 64.75 56 71.09375 56 
Q 79.640625 56 84.28125 50.015625 
Q 88.921875 44.046875 88.921875 33.015625 
L 88.921875 0 
L 79.890625 0 
L 79.890625 32.71875 
Q 79.890625 40.578125 77.09375 44.375 
Q 74.3125 48.1875 68.609375 48.1875 
Q 61.625 48.1875 57.5625 43.546875 
Q 53.515625 38.921875 53.515625 30.90625 
L 53.515625 0 
L 44.484375 0 
L 44.484375 32.71875 
Q 44.484375 40.625 41.703125 44.40625 
Q 38.921875 48.1875 33.109375 48.1875 
Q 26.21875 48.1875 22.15625 43.53125 
Q 18.109375 38.875 18.109375 30.90625 
L 18.109375 0 
L 9.078125 0 
L 9.078125 54.6875 
L 18.109375 54.6875 
L 18.109375 46.1875 
Q 21.1875 51.21875 25.484375 53.609375 
Q 29.78125 56 35.6875 56 
Q 41.65625 56 45.828125 52.96875 
Q 50 49.953125 52 44.1875 
z
" id="DejaVuSans-109"/>
      <path d="M 34.28125 27.484375 
Q 23.390625 27.484375 19.1875 25 
Q 14.984375 22.515625 14.984375 16.5 
Q 14.984375 11.71875 18.140625 8.90625 
Q 21.296875 6.109375 26.703125 6.109375 
Q 34.1875 6.109375 38.703125 11.40625 
Q 43.21875 16.703125 43.21875 25.484375 
L 43.21875 27.484375 
z
M 52.203125 31.203125 
L 52.203125 0 
L 43.21875 0 
L 43.21875 8.296875 
Q 40.140625 3.328125 35.546875 0.953125 
Q 30.953125 -1.421875 24.3125 -1.421875 
Q 15.921875 -1.421875 10.953125 3.296875 
Q 6 8.015625 6 15.921875 
Q 6 25.140625 12.171875 29.828125 
Q 18.359375 34.515625 30.609375 34.515625 
L 43.21875 34.515625 
L 43.21875 35.40625 
Q 43.21875 41.609375 39.140625 45 
Q 35.0625 48.390625 27.6875 48.390625 
Q 23 48.390625 18.546875 47.265625 
Q 14.109375 46.140625 10.015625 43.890625 
L 10.015625 52.203125 
Q 14.9375 54.109375 19.578125 55.046875 
Q 24.21875 56 28.609375 56 
Q 40.484375 56 46.34375 49.84375 
Q 52.203125 43.703125 52.203125 31.203125 
z
" id="DejaVuSans-97"/>
      <path d="M 9.421875 75.984375 
L 18.40625 75.984375 
L 18.40625 0 
L 9.421875 0 
z
" id="DejaVuSans-108"/>
      <path d="M 9.421875 54.6875 
L 18.40625 54.6875 
L 18.40625 0 
L 9.421875 0 
z
M 9.421875 75.984375 
L 18.40625 75.984375 
L 18.40625 64.59375 
L 9.421875 64.59375 
z
" id="DejaVuSans-105"/>
      <path d="M 45.40625 46.390625 
L 45.40625 75.984375 
L 54.390625 75.984375 
L 54.390625 0 
L 45.40625 0 
L 45.40625 8.203125 
Q 42.578125 3.328125 38.25 0.953125 
Q 33.9375 -1.421875 27.875 -1.421875 
Q 17.96875 -1.421875 11.734375 6.484375 
Q 5.515625 14.40625 5.515625 27.296875 
Q 5.515625 40.1875 11.734375 48.09375 
Q 17.96875 56 27.875 56 
Q 33.9375 56 38.25 53.625 
Q 42.578125 51.265625 45.40625 46.390625 
z
M 14.796875 27.296875 
Q 14.796875 17.390625 18.875 11.75 
Q 22.953125 6.109375 30.078125 6.109375 
Q 37.203125 6.109375 41.296875 11.75 
Q 45.40625 17.390625 45.40625 27.296875 
Q 45.40625 37.203125 41.296875 42.84375 
Q 37.203125 48.484375 30.078125 48.484375 
Q 22.953125 48.484375 18.875 42.84375 
Q 14.796875 37.203125 14.796875 27.296875 
z
" id="DejaVuSans-100"/>
      <path d="M 9.8125 72.90625 
L 24.515625 72.90625 
L 43.109375 23.296875 
L 61.8125 72.90625 
L 76.515625 72.90625 
L 76.515625 0 
L 66.890625 0 
L 66.890625 64.015625 
L 48.09375 14.015625 
L 38.1875 14.015625 
L 19.390625 64.015625 
L 19.390625 0 
L 9.8125 0 
z
" id="DejaVuSans-77"/>
      <path d="M 45.40625 27.984375 
Q 45.40625 37.75 41.375 43.109375 
Q 37.359375 48.484375 30.078125 48.484375 
Q 22.859375 48.484375 18.828125 43.109375 
Q 14.796875 37.75 14.796875 27.984375 
Q 14.796875 18.265625 18.828125 12.890625 
Q 22.859375 7.515625 30.078125 7.515625 
Q 37.359375 7.515625 41.375 12.890625 
Q 45.40625 18.265625 45.40625 27.984375 
z
M 54.390625 6.78125 
Q 54.390625 -7.171875 48.1875 -13.984375 
Q 42 -20.796875 29.203125 -20.796875 
Q 24.46875 -20.796875 20.265625 -20.09375 
Q 16.0625 -19.390625 12.109375 -17.921875 
L 12.109375 -9.1875 
Q 16.0625 -11.328125 19.921875 -12.34375 
Q 23.78125 -13.375 27.78125 -13.375 
Q 36.625 -13.375 41.015625 -8.765625 
Q 45.40625 -4.15625 45.40625 5.171875 
L 45.40625 9.625 
Q 42.625 4.78125 38.28125 2.390625 
Q 33.9375 0 27.875 0 
Q 17.828125 0 11.671875 7.65625 
Q 5.515625 15.328125 5.515625 27.984375 
Q 5.515625 40.671875 11.671875 48.328125 
Q 17.828125 56 27.875 56 
Q 33.9375 56 38.28125 53.609375 
Q 42.625 51.21875 45.40625 46.390625 
L 45.40625 54.6875 
L 54.390625 54.6875 
z
" id="DejaVuSans-103"/>
      <path d="M 18.3125 70.21875 
L 18.3125 54.6875 
L 36.8125 54.6875 
L 36.8125 47.703125 
L 18.3125 47.703125 
L 18.3125 18.015625 
Q 18.3125 11.328125 20.140625 9.421875 
Q 21.96875 7.515625 27.59375 7.515625 
L 36.8125 7.515625 
L 36.8125 0 
L 27.59375 0 
Q 17.1875 0 13.234375 3.875 
Q 9.28125 7.765625 9.28125 18.015625 
L 9.28125 47.703125 
L 2.6875 47.703125 
L 2.6875 54.6875 
L 9.28125 54.6875 
L 9.28125 70.21875 
z
" id="DejaVuSans-116"/>
     </defs>
     <g transform="translate(14.798438 120.242187)rotate(-90)scale(0.1 -0.1)">
      <use xlink:href="#DejaVuSans-78"/>
      <use x="74.804688" xlink:href="#DejaVuSans-111"/>
      <use x="135.986328" xlink:href="#DejaVuSans-114"/>
      <use x="177.083984" xlink:href="#DejaVuSans-109"/>
      <use x="274.496094" xlink:href="#DejaVuSans-97"/>
      <use x="335.775391" xlink:href="#DejaVuSans-108"/>
      <use x="363.558594" xlink:href="#DejaVuSans-105"/>
      <use x="391.341797" xlink:href="#DejaVuSans-122"/>
      <use x="443.832031" xlink:href="#DejaVuSans-101"/>
      <use x="505.355469" xlink:href="#DejaVuSans-100"/>
      <use x="568.832031" xlink:href="#DejaVuSans-32"/>
      <use x="600.619141" xlink:href="#DejaVuSans-77"/>
      <use x="686.898438" xlink:href="#DejaVuSans-97"/>
      <use x="748.177734" xlink:href="#DejaVuSans-103"/>
      <use x="811.654297" xlink:href="#DejaVuSans-110"/>
      <use x="875.033203" xlink:href="#DejaVuSans-105"/>
      <use x="902.816406" xlink:href="#DejaVuSans-116"/>
      <use x="942.025391" xlink:href="#DejaVuSans-117"/>
      <use x="1005.404297" xlink:href="#DejaVuSans-100"/>
      <use x="1068.880859" xlink:href="#DejaVuSans-101"/>
     </g>
    </g>
   </g>
   <g id="line2d_26">
    <path clip-path="url(#p3d4cfdf919)" d="M 50.14375 106.386125 
L 51.017331 107.028791 
L 51.890912 107.409309 
L 52.764494 107.418686 
L 53.638075 107.018828 
L 54.511656 106.217586 
L 55.385237 105.031371 
L 56.258818 103.442779 
L 57.1324 101.367692 
L 58.005981 98.659053 
L 58.879562 95.178287 
L 60.189934 88.576618 
L 62.373887 77.023003 
L 63.247468 73.677555 
L 64.121049 71.462993 
L 64.55784 70.762416 
L 64.994631 70.303765 
L 65.431421 70.062671 
L 65.868212 70.018509 
L 66.305002 70.156422 
L 66.741793 70.466542 
L 67.615374 71.567356 
L 68.488955 73.189089 
L 70.236118 76.689495 
L 71.109699 77.772745 
L 71.54649 78.052259 
L 71.98328 78.17318 
L 72.856862 78.092147 
L 74.604024 77.759179 
L 75.477605 77.613978 
L 75.914396 77.421867 
L 76.351186 77.082785 
L 76.787977 76.560992 
L 77.661558 74.946379 
L 80.282302 68.86542 
L 81.155883 67.592238 
L 82.466255 65.743443 
L 83.339836 63.892663 
L 84.650208 60.103241 
L 85.96058 56.462476 
L 86.834161 54.867734 
L 87.707742 53.997436 
L 89.018114 53.354851 
L 90.328486 52.602524 
L 91.638858 51.75487 
L 92.512439 51.511164 
L 93.38602 51.689832 
L 94.259601 52.206585 
L 95.569973 53.067494 
L 96.443554 53.287087 
L 96.880345 53.198839 
L 97.317136 52.944006 
L 97.753926 52.500139 
L 98.190717 51.84935 
L 99.064298 49.8959 
L 99.937879 47.137023 
L 101.685042 40.32353 
L 102.995413 35.505888 
L 103.868995 32.871033 
L 104.742576 30.72607 
L 106.052948 28.22056 
L 107.363319 26.249617 
L 108.673691 24.689111 
L 109.984063 23.565854 
L 111.731226 22.492413 
L 113.041597 21.884072 
L 113.915179 21.757733 
L 114.78876 21.994707 
L 116.099132 22.856881 
L 116.972713 23.371202 
L 117.409503 23.49491 
L 117.846294 23.49446 
L 118.283085 23.357303 
L 119.156666 22.674826 
L 120.030247 21.531445 
L 121.340619 19.311771 
L 123.087781 16.312609 
L 123.961363 15.131888 
L 124.834944 14.408029 
L 125.271734 14.302955 
L 125.708525 14.422938 
L 126.145316 14.80585 
L 126.582106 15.480028 
L 127.018897 16.458778 
L 127.892478 19.291588 
L 128.766059 23.063276 
L 130.513222 31.960871 
L 134.444337 52.572748 
L 135.317918 55.699349 
L 136.1915 57.778171 
L 137.065081 59.016263 
L 137.938662 59.746006 
L 138.812243 60.158545 
L 139.249034 60.228274 
L 139.685824 60.165215 
L 140.122615 59.928101 
L 140.559406 59.477611 
L 140.996196 58.784203 
L 141.869777 56.628867 
L 142.743359 53.55269 
L 144.05373 47.842823 
L 146.237683 37.066079 
L 148.421636 26.092883 
L 149.295218 23.209271 
L 149.732008 22.466194 
L 150.168799 22.285183 
L 150.60559 22.701985 
L 151.04238 23.716685 
L 151.479171 25.293003 
L 152.352752 29.82847 
L 155.847077 51.663822 
L 157.157449 57.608083 
L 161.962145 77.13837 
L 163.272517 81.287741 
L 164.146098 83.500317 
L 165.01968 85.196182 
L 165.893261 86.277945 
L 166.330051 86.564186 
L 166.766842 86.678809 
L 167.203633 86.631195 
L 168.077214 86.13526 
L 172.44512 82.264378 
L 173.318701 80.948341 
L 174.192282 79.067365 
L 176.376235 73.560756 
L 177.249817 72.187767 
L 177.686607 71.881346 
L 178.123398 71.869529 
L 178.560188 72.167464 
L 178.996979 72.776196 
L 179.43377 73.681872 
L 180.307351 76.255014 
L 181.617723 81.237002 
L 182.928094 86.163966 
L 183.801676 88.882819 
L 184.675257 91.063707 
L 185.548838 92.786241 
L 186.422419 94.153265 
L 187.732791 95.695069 
L 189.043163 96.815859 
L 192.537488 99.274373 
L 194.721441 100.545597 
L 199.962928 103.264381 
L 201.2733 103.650812 
L 203.457253 104.011464 
L 209.135531 104.736691 
L 213.940227 104.595346 
L 215.68739 104.896334 
L 217.434552 105.44043 
L 221.365668 106.820379 
L 225.733574 107.923295 
L 231.411852 109.147356 
L 233.159014 109.280083 
L 237.09013 109.399146 
L 239.274083 109.524302 
L 241.458036 109.372495 
L 243.205198 109.311909 
L 244.51557 109.471524 
L 254.998545 111.541257 
L 260.676822 112.14579 
L 273.34375 113.139273 
L 273.34375 113.139273 
" style="fill:none;stroke:#1f77b4;stroke-linecap:square;stroke-width:1.5;"/>
   </g>
   <g id="line2d_27">
    <path clip-path="url(#p3d4cfdf919)" d="M 50.14375 106.386125 
L 51.017331 107.028791 
L 51.890912 107.409309 
L 52.764494 107.418686 
L 53.638075 107.018828 
L 54.511656 106.217586 
L 55.385237 105.031371 
L 56.258818 103.442779 
L 57.1324 101.367692 
L 58.005981 98.659053 
L 58.879562 95.178287 
L 60.189934 88.576618 
L 62.373887 77.023003 
L 63.247468 73.677555 
L 64.121049 71.462993 
L 64.55784 70.762416 
L 64.994631 70.303765 
L 65.431421 70.062671 
L 65.868212 70.018509 
L 66.305002 70.156422 
L 66.741793 70.466542 
L 67.615374 71.567356 
L 68.488955 73.189089 
L 70.236118 76.689495 
L 71.109699 77.772745 
L 71.54649 78.052259 
L 71.98328 78.17318 
L 72.856862 78.092147 
L 74.604024 77.759179 
L 75.477605 77.613978 
L 75.914396 77.421867 
L 76.351186 77.082785 
L 76.787977 76.560992 
L 77.661558 74.946379 
L 80.282302 68.86542 
L 81.155883 67.592238 
L 82.466255 65.743443 
L 83.339836 63.892663 
L 84.650208 60.103241 
L 85.96058 56.462476 
L 86.834161 54.867734 
L 87.707742 53.997436 
L 89.018114 53.354851 
L 90.328486 52.602524 
L 91.638858 51.75487 
L 92.512439 51.511164 
L 93.38602 51.689832 
L 94.259601 52.206585 
L 95.569973 53.067494 
L 96.443554 53.287087 
L 96.880345 53.198839 
L 97.317136 52.944006 
L 97.753926 52.500139 
L 98.190717 51.84935 
L 99.064298 49.8959 
L 99.937879 47.137023 
L 101.685042 40.32353 
L 102.995413 35.505888 
L 103.868995 32.871033 
L 104.742576 30.72607 
L 106.052948 28.22056 
L 107.363319 26.249617 
L 108.673691 24.689111 
L 109.984063 23.565854 
L 111.731226 22.492413 
L 113.041597 21.884072 
L 113.915179 21.757733 
L 114.78876 21.994707 
L 116.099132 22.856881 
L 116.972713 23.371202 
L 117.409503 23.49491 
L 117.846294 23.49446 
L 118.283085 23.357303 
L 119.156666 22.674826 
L 120.030247 21.531445 
L 121.340619 19.311771 
L 123.087781 16.312609 
L 123.961363 15.131888 
L 124.834944 14.408029 
L 125.271734 14.302955 
L 125.708525 14.422938 
L 126.145316 14.80585 
L 126.582106 15.480028 
L 127.018897 16.458778 
L 127.892478 19.291588 
L 128.766059 23.063276 
L 130.513222 31.960871 
L 134.444337 52.572748 
L 135.317918 55.699349 
L 136.1915 57.778171 
L 137.065081 59.016263 
L 137.938662 59.746006 
L 138.812243 60.158545 
L 139.249034 60.228274 
L 139.685824 60.165215 
L 140.122615 59.928101 
L 140.559406 59.477611 
L 140.996196 58.784203 
L 141.869777 56.628867 
L 142.743359 53.55269 
L 144.05373 47.842823 
L 146.237683 37.066079 
L 148.421636 26.092883 
L 149.295218 23.209271 
L 149.732008 22.466194 
L 150.168799 22.285183 
L 150.60559 22.701985 
L 151.04238 23.716685 
L 151.479171 25.293003 
L 152.352752 29.82847 
L 155.847077 51.663822 
L 157.157449 57.608083 
L 161.962145 77.13837 
L 163.272517 81.287741 
L 164.146098 83.500317 
L 165.01968 85.196182 
L 165.893261 86.277945 
L 166.330051 86.564186 
L 166.766842 86.678809 
L 167.203633 86.631195 
L 168.077214 86.13526 
L 172.44512 82.264378 
L 173.318701 80.948341 
L 174.192282 79.067365 
L 176.376235 73.560756 
L 177.249817 72.187767 
L 177.686607 71.881346 
L 178.123398 71.869529 
L 178.560188 72.167464 
L 178.996979 72.776196 
L 179.43377 73.681872 
L 180.307351 76.255014 
L 181.617723 81.237002 
L 182.928094 86.163966 
L 183.801676 88.882819 
L 184.675257 91.063707 
L 185.548838 92.786241 
L 186.422419 94.153265 
L 187.732791 95.695069 
L 189.043163 96.815859 
L 192.537488 99.274373 
L 194.721441 100.545597 
L 199.962928 103.264381 
L 201.2733 103.650812 
L 203.457253 104.011464 
L 209.135531 104.736691 
L 213.940227 104.595346 
L 215.68739 104.896334 
L 217.434552 105.44043 
L 221.365668 106.820379 
L 225.733574 107.923295 
L 231.411852 109.147356 
L 233.159014 109.280083 
L 237.09013 109.399146 
L 239.274083 109.524302 
L 241.458036 109.372495 
L 243.205198 109.311909 
L 244.51557 109.471524 
L 254.998545 111.541257 
L 260.676822 112.14579 
L 273.34375 113.139273 
L 273.34375 113.139273 
" style="fill:none;stroke:#ff7f0e;stroke-linecap:square;stroke-width:1.5;"/>
   </g>
   <g id="line2d_28">
    <path clip-path="url(#p3d4cfdf919)" d="M 50.14375 106.386134 
L 51.017184 107.028779 
L 51.891067 107.409307 
L 52.764611 107.418679 
L 53.638248 107.018802 
L 54.511607 106.217588 
L 55.385087 105.03136 
L 56.258679 103.442787 
L 57.13237 101.36767 
L 58.006139 98.659029 
L 58.879616 95.178297 
L 60.189821 88.576601 
L 62.373775 77.023004 
L 63.24761 73.677563 
L 64.120923 71.462973 
L 64.557914 70.762432 
L 64.994565 70.303753 
L 65.431425 70.062648 
L 65.868152 70.018508 
L 66.304991 70.15642 
L 66.741892 70.466556 
L 67.61541 71.567376 
L 68.488903 73.189104 
L 70.236209 76.689487 
L 71.109802 77.772722 
L 71.546488 78.052273 
L 71.98321 78.173204 
L 72.856816 78.09213 
L 74.604085 77.759168 
L 75.477717 77.614001 
L 75.914344 77.421873 
L 76.351242 77.082763 
L 76.787907 76.560999 
L 77.661483 74.946375 
L 80.282249 68.865436 
L 81.155805 67.59224 
L 82.466249 65.743465 
L 83.339802 63.892674 
L 84.65024 60.103317 
L 85.960583 56.462302 
L 86.834082 54.867531 
L 87.7078 53.997336 
L 89.018055 53.354892 
L 90.328562 52.602604 
L 91.638875 51.755083 
L 92.512452 51.511206 
L 93.386094 51.690083 
L 94.25958 52.206557 
L 95.57002 53.067682 
L 96.443624 53.286869 
L 96.880392 53.19869 
L 97.317079 52.944233 
L 97.753911 52.500317 
L 98.190704 51.849308 
L 99.064256 49.895777 
L 99.937893 47.13705 
L 101.685082 40.323625 
L 102.995453 35.506057 
L 103.869013 32.871284 
L 104.74258 30.726279 
L 106.052906 28.220499 
L 107.363361 26.249836 
L 108.673668 24.689329 
L 109.984055 23.565683 
L 111.73125 22.492425 
L 113.041607 21.884246 
L 113.9152 21.757772 
L 114.788756 21.994595 
L 116.099104 22.856728 
L 116.972694 23.371187 
L 117.40953 23.49514 
L 117.846274 23.494636 
L 118.28305 23.357078 
L 119.156674 22.674829 
L 120.030273 21.531532 
L 121.340621 19.311953 
L 123.087781 16.312373 
L 123.96133 15.13179 
L 124.83495 14.408222 
L 125.271714 14.302912 
L 125.708551 14.422835 
L 126.145343 14.805781 
L 126.582114 15.479969 
L 127.018887 16.459002 
L 127.892451 19.291798 
L 128.766062 23.063318 
L 130.513228 31.960778 
L 134.444343 52.572875 
L 135.317916 55.699432 
L 136.191502 57.777925 
L 137.065055 59.016455 
L 137.938687 59.746068 
L 138.812232 60.158744 
L 139.249013 60.228279 
L 139.685836 60.165294 
L 140.122606 59.927968 
L 140.559426 59.477502 
L 140.996199 58.784167 
L 141.86976 56.629085 
L 142.743348 53.552916 
L 144.053735 47.842982 
L 146.237703 37.06606 
L 148.421708 26.09313 
L 149.295332 23.209442 
L 149.732178 22.466223 
L 150.168853 22.285332 
L 150.605705 22.702038 
L 151.042298 23.716846 
L 151.479353 25.292974 
L 152.352751 29.828371 
L 155.847118 51.663881 
L 157.157323 57.608118 
L 161.962019 77.138391 
L 163.272582 81.287718 
L 164.14622 83.500292 
L 165.019749 85.196191 
L 165.893352 86.277965 
L 166.329998 86.564167 
L 166.766925 86.678799 
L 167.203552 86.631182 
L 168.077304 86.135267 
L 172.44519 82.264383 
L 173.318704 80.948357 
L 174.192211 79.067384 
L 176.376136 73.560764 
L 177.249729 72.187749 
L 177.686559 71.881342 
L 178.123347 71.869551 
L 178.56025 72.167443 
L 178.997019 72.776177 
L 179.433809 73.681896 
L 180.307262 76.254994 
L 181.617769 81.236977 
L 182.928027 86.163988 
L 183.801665 88.882807 
L 184.675186 91.063688 
L 185.54891 92.786242 
L 186.42246 94.15326 
L 187.732857 95.695073 
L 189.043158 96.815847 
L 192.537518 99.274364 
L 194.721419 100.545595 
L 199.962921 103.264364 
L 201.273324 103.650788 
L 203.457253 104.011463 
L 209.135531 104.736693 
L 213.940217 104.595355 
L 215.687413 104.896321 
L 217.434568 105.440408 
L 221.365662 106.820376 
L 225.733571 107.923312 
L 231.411853 109.147355 
L 233.159021 109.280081 
L 237.090136 109.399148 
L 239.274067 109.524301 
L 241.458056 109.372493 
L 243.20519 109.311906 
L 244.515426 109.471525 
L 254.998528 111.541255 
L 260.676866 112.145791 
L 273.34375 113.139276 
L 273.34375 113.139276 
" style="fill:none;stroke:#2ca02c;stroke-dasharray:5.55,2.4;stroke-dashoffset:0;stroke-width:1.5;"/>
   </g>
   <g id="line2d_29">
    <path clip-path="url(#p3d4cfdf919)" d="M 50.14375 106.386134 
L 51.017184 107.028779 
L 51.891067 107.409307 
L 52.764611 107.418679 
L 53.638248 107.018802 
L 54.511607 106.217588 
L 55.385087 105.03136 
L 56.258679 103.442787 
L 57.13237 101.36767 
L 58.006139 98.659029 
L 58.879616 95.178297 
L 60.189821 88.576601 
L 62.373775 77.023004 
L 63.24761 73.677563 
L 64.120923 71.462973 
L 64.557914 70.762432 
L 64.994565 70.303753 
L 65.431425 70.062648 
L 65.868152 70.018508 
L 66.304991 70.15642 
L 66.741892 70.466556 
L 67.61541 71.567376 
L 68.488903 73.189104 
L 70.236209 76.689487 
L 71.109802 77.772722 
L 71.546488 78.052273 
L 71.98321 78.173204 
L 72.856816 78.09213 
L 74.604085 77.759168 
L 75.477717 77.614001 
L 75.914344 77.421873 
L 76.351242 77.082763 
L 76.787907 76.560999 
L 77.661483 74.946375 
L 80.282249 68.865436 
L 81.155805 67.59224 
L 82.466249 65.743465 
L 83.339802 63.892674 
L 84.65024 60.103317 
L 85.960583 56.462302 
L 86.834082 54.867531 
L 87.7078 53.997336 
L 89.018055 53.354892 
L 90.328562 52.602604 
L 91.638875 51.755083 
L 92.512452 51.511206 
L 93.386094 51.690083 
L 94.25958 52.206557 
L 95.57002 53.067682 
L 96.443624 53.286869 
L 96.880392 53.19869 
L 97.317079 52.944233 
L 97.753911 52.500317 
L 98.190704 51.849308 
L 99.064256 49.895777 
L 99.937893 47.13705 
L 101.685082 40.323625 
L 102.995453 35.506057 
L 103.869013 32.871284 
L 104.74258 30.726279 
L 106.052906 28.220499 
L 107.363361 26.249836 
L 108.673668 24.689329 
L 109.984055 23.565683 
L 111.73125 22.492425 
L 113.041607 21.884246 
L 113.9152 21.757772 
L 114.788756 21.994595 
L 116.099104 22.856728 
L 116.972694 23.371187 
L 117.40953 23.49514 
L 117.846274 23.494636 
L 118.28305 23.357078 
L 119.156674 22.674829 
L 120.030273 21.531532 
L 121.340621 19.311953 
L 123.087781 16.312373 
L 123.96133 15.13179 
L 124.83495 14.408222 
L 125.271714 14.302912 
L 125.708551 14.422835 
L 126.145343 14.805781 
L 126.582114 15.479969 
L 127.018887 16.459002 
L 127.892451 19.291798 
L 128.766062 23.063318 
L 130.513228 31.960778 
L 134.444343 52.572875 
L 135.317916 55.699432 
L 136.191502 57.777925 
L 137.065055 59.016455 
L 137.938687 59.746068 
L 138.812232 60.158744 
L 139.249013 60.228279 
L 139.685836 60.165294 
L 140.122606 59.927968 
L 140.559426 59.477502 
L 140.996199 58.784167 
L 141.86976 56.629085 
L 142.743348 53.552916 
L 144.053735 47.842982 
L 146.237703 37.06606 
L 148.421708 26.09313 
L 149.295332 23.209442 
L 149.732178 22.466223 
L 150.168853 22.285332 
L 150.605705 22.702038 
L 151.042298 23.716846 
L 151.479353 25.292974 
L 152.352751 29.828371 
L 155.847118 51.663881 
L 157.157323 57.608118 
L 161.962019 77.138391 
L 163.272582 81.287718 
L 164.14622 83.500292 
L 165.019749 85.196191 
L 165.893352 86.277965 
L 166.329998 86.564167 
L 166.766925 86.678799 
L 167.203552 86.631182 
L 168.077304 86.135267 
L 172.44519 82.264383 
L 173.318704 80.948357 
L 174.192211 79.067384 
L 176.376136 73.560764 
L 177.249729 72.187749 
L 177.686559 71.881342 
L 178.123347 71.869551 
L 178.56025 72.167443 
L 178.997019 72.776177 
L 179.433809 73.681896 
L 180.307262 76.254994 
L 181.617769 81.236977 
L 182.928027 86.163988 
L 183.801665 88.882807 
L 184.675186 91.063688 
L 185.54891 92.786242 
L 186.42246 94.15326 
L 187.732857 95.695073 
L 189.043158 96.815847 
L 192.537518 99.274364 
L 194.721419 100.545595 
L 199.962921 103.264364 
L 201.273324 103.650788 
L 203.457253 104.011463 
L 209.135531 104.736693 
L 213.940217 104.595355 
L 215.687413 104.896321 
L 217.434568 105.440408 
L 221.365662 106.820376 
L 225.733571 107.923312 
L 231.411853 109.147355 
L 233.159021 109.280081 
L 237.090136 109.399148 
L 239.274067 109.524301 
L 241.458056 109.372493 
L 243.20519 109.311906 
L 244.515426 109.471525 
L 254.998528 111.541255 
L 260.676866 112.145791 
L 273.34375 113.139276 
L 273.34375 113.139276 
" style="fill:none;stroke:#d62728;stroke-dasharray:1.5,2.475;stroke-dashoffset:0;stroke-width:1.5;"/>
   </g>
   <g id="patch_3">
    <path d="M 50.14375 118.081094 
L 50.14375 9.361094 
" style="fill:none;stroke:#000000;stroke-linecap:square;stroke-linejoin:miter;stroke-width:0.8;"/>
   </g>
   <g id="patch_4">
    <path d="M 50.14375 118.081094 
L 273.34375 118.081094 
" style="fill:none;stroke:#000000;stroke-linecap:square;stroke-linejoin:miter;stroke-width:0.8;"/>
   </g>
   <g id="legend_1">
    <g id="patch_5">
     <path d="M 191.06375 76.073594 
L 302.329375 76.073594 
Q 304.329375 76.073594 304.329375 74.073594 
L 304.329375 16.361094 
Q 304.329375 14.361094 302.329375 14.361094 
L 191.06375 14.361094 
Q 189.06375 14.361094 189.06375 16.361094 
L 189.06375 74.073594 
Q 189.06375 76.073594 191.06375 76.073594 
z
" style="fill:#ffffff;opacity:0.8;stroke:#cccccc;stroke-linejoin:miter;"/>
    </g>
    <g id="line2d_30">
     <path d="M 193.06375 22.459531 
L 213.06375 22.459531 
" style="fill:none;stroke:#1f77b4;stroke-linecap:square;stroke-width:1.5;"/>
    </g>
    <g id="line2d_31"/>
    <g id="text_13">
     <!-- Python -->
     <defs>
      <path d="M 19.671875 64.796875 
L 19.671875 37.40625 
L 32.078125 37.40625 
Q 38.96875 37.40625 42.71875 40.96875 
Q 46.484375 44.53125 46.484375 51.125 
Q 46.484375 57.671875 42.71875 61.234375 
Q 38.96875 64.796875 32.078125 64.796875 
z
M 9.8125 72.90625 
L 32.078125 72.90625 
Q 44.34375 72.90625 50.609375 67.359375 
Q 56.890625 61.8125 56.890625 51.125 
Q 56.890625 40.328125 50.609375 34.8125 
Q 44.34375 29.296875 32.078125 29.296875 
L 19.671875 29.296875 
L 19.671875 0 
L 9.8125 0 
z
" id="DejaVuSans-80"/>
      <path d="M 54.890625 33.015625 
L 54.890625 0 
L 45.90625 0 
L 45.90625 32.71875 
Q 45.90625 40.484375 42.875 44.328125 
Q 39.84375 48.1875 33.796875 48.1875 
Q 26.515625 48.1875 22.3125 43.546875 
Q 18.109375 38.921875 18.109375 30.90625 
L 18.109375 0 
L 9.078125 0 
L 9.078125 75.984375 
L 18.109375 75.984375 
L 18.109375 46.1875 
Q 21.34375 51.125 25.703125 53.5625 
Q 30.078125 56 35.796875 56 
Q 45.21875 56 50.046875 50.171875 
Q 54.890625 44.34375 54.890625 33.015625 
z
" id="DejaVuSans-104"/>
     </defs>
     <g transform="translate(221.06375 25.959531)scale(0.1 -0.1)">
      <use xlink:href="#DejaVuSans-80"/>
      <use x="60.302734" xlink:href="#DejaVuSans-121"/>
      <use x="119.482422" xlink:href="#DejaVuSans-116"/>
      <use x="158.691406" xlink:href="#DejaVuSans-104"/>
      <use x="222.070312" xlink:href="#DejaVuSans-111"/>
      <use x="283.251953" xlink:href="#DejaVuSans-110"/>
     </g>
    </g>
    <g id="line2d_32">
     <path d="M 193.06375 37.137656 
L 213.06375 37.137656 
" style="fill:none;stroke:#ff7f0e;stroke-linecap:square;stroke-width:1.5;"/>
    </g>
    <g id="line2d_33"/>
    <g id="text_14">
     <!-- Python &amp; Jit -->
     <defs>
      <path d="M 24.3125 39.203125 
Q 19.875 35.25 17.796875 31.3125 
Q 15.71875 27.390625 15.71875 23.09375 
Q 15.71875 15.96875 20.890625 11.234375 
Q 26.078125 6.5 33.890625 6.5 
Q 38.53125 6.5 42.578125 8.03125 
Q 46.625 9.578125 50.203125 12.703125 
z
M 31.203125 44.671875 
L 56 19.28125 
Q 58.890625 23.640625 60.5 28.59375 
Q 62.109375 33.546875 62.40625 39.109375 
L 71.484375 39.109375 
Q 70.90625 32.671875 68.359375 26.359375 
Q 65.828125 20.0625 61.28125 13.921875 
L 74.90625 0 
L 62.59375 0 
L 55.609375 7.171875 
Q 50.53125 2.828125 44.96875 0.703125 
Q 39.40625 -1.421875 33.015625 -1.421875 
Q 21.234375 -1.421875 13.765625 5.296875 
Q 6.296875 12.015625 6.296875 22.515625 
Q 6.296875 28.765625 9.5625 34.25 
Q 12.84375 39.75 19.390625 44.578125 
Q 17.046875 47.65625 15.8125 50.703125 
Q 14.59375 53.765625 14.59375 56.6875 
Q 14.59375 64.59375 20.015625 69.40625 
Q 25.4375 74.21875 34.421875 74.21875 
Q 38.484375 74.21875 42.5 73.34375 
Q 46.53125 72.46875 50.6875 70.703125 
L 50.6875 61.8125 
Q 46.4375 64.109375 42.578125 65.296875 
Q 38.71875 66.5 35.40625 66.5 
Q 30.28125 66.5 27.078125 63.78125 
Q 23.875 61.078125 23.875 56.78125 
Q 23.875 54.296875 25.3125 51.78125 
Q 26.765625 49.265625 31.203125 44.671875 
z
" id="DejaVuSans-38"/>
      <path d="M 9.8125 72.90625 
L 19.671875 72.90625 
L 19.671875 5.078125 
Q 19.671875 -8.109375 14.671875 -14.0625 
Q 9.671875 -20.015625 -1.421875 -20.015625 
L -5.171875 -20.015625 
L -5.171875 -11.71875 
L -2.09375 -11.71875 
Q 4.4375 -11.71875 7.125 -8.046875 
Q 9.8125 -4.390625 9.8125 5.078125 
z
" id="DejaVuSans-74"/>
     </defs>
     <g transform="translate(221.06375 40.637656)scale(0.1 -0.1)">
      <use xlink:href="#DejaVuSans-80"/>
      <use x="60.302734" xlink:href="#DejaVuSans-121"/>
      <use x="119.482422" xlink:href="#DejaVuSans-116"/>
      <use x="158.691406" xlink:href="#DejaVuSans-104"/>
      <use x="222.070312" xlink:href="#DejaVuSans-111"/>
      <use x="283.251953" xlink:href="#DejaVuSans-110"/>
      <use x="346.630859" xlink:href="#DejaVuSans-32"/>
      <use x="378.417969" xlink:href="#DejaVuSans-38"/>
      <use x="456.396484" xlink:href="#DejaVuSans-32"/>
      <use x="488.183594" xlink:href="#DejaVuSans-74"/>
      <use x="517.675781" xlink:href="#DejaVuSans-105"/>
      <use x="545.458984" xlink:href="#DejaVuSans-116"/>
     </g>
    </g>
    <g id="line2d_34">
     <path d="M 193.06375 51.815781 
L 213.06375 51.815781 
" style="fill:none;stroke:#2ca02c;stroke-dasharray:5.55,2.4;stroke-dashoffset:0;stroke-width:1.5;"/>
    </g>
    <g id="line2d_35"/>
    <g id="text_15">
     <!-- C++ -->
     <defs>
      <path d="M 64.40625 67.28125 
L 64.40625 56.890625 
Q 59.421875 61.53125 53.78125 63.8125 
Q 48.140625 66.109375 41.796875 66.109375 
Q 29.296875 66.109375 22.65625 58.46875 
Q 16.015625 50.828125 16.015625 36.375 
Q 16.015625 21.96875 22.65625 14.328125 
Q 29.296875 6.6875 41.796875 6.6875 
Q 48.140625 6.6875 53.78125 8.984375 
Q 59.421875 11.28125 64.40625 15.921875 
L 64.40625 5.609375 
Q 59.234375 2.09375 53.4375 0.328125 
Q 47.65625 -1.421875 41.21875 -1.421875 
Q 24.65625 -1.421875 15.125 8.703125 
Q 5.609375 18.84375 5.609375 36.375 
Q 5.609375 53.953125 15.125 64.078125 
Q 24.65625 74.21875 41.21875 74.21875 
Q 47.75 74.21875 53.53125 72.484375 
Q 59.328125 70.75 64.40625 67.28125 
z
" id="DejaVuSans-67"/>
      <path d="M 46 62.703125 
L 46 35.5 
L 73.1875 35.5 
L 73.1875 27.203125 
L 46 27.203125 
L 46 0 
L 37.796875 0 
L 37.796875 27.203125 
L 10.59375 27.203125 
L 10.59375 35.5 
L 37.796875 35.5 
L 37.796875 62.703125 
z
" id="DejaVuSans-43"/>
     </defs>
     <g transform="translate(221.06375 55.315781)scale(0.1 -0.1)">
      <use xlink:href="#DejaVuSans-67"/>
      <use x="69.824219" xlink:href="#DejaVuSans-43"/>
      <use x="153.613281" xlink:href="#DejaVuSans-43"/>
     </g>
    </g>
    <g id="line2d_36">
     <path d="M 193.06375 66.493906 
L 213.06375 66.493906 
" style="fill:none;stroke:#d62728;stroke-dasharray:1.5,2.475;stroke-dashoffset:0;stroke-width:1.5;"/>
    </g>
    <g id="line2d_37"/>
    <g id="text_16">
     <!-- C++ &amp; OpenMP -->
     <defs>
      <path d="M 39.40625 66.21875 
Q 28.65625 66.21875 22.328125 58.203125 
Q 16.015625 50.203125 16.015625 36.375 
Q 16.015625 22.609375 22.328125 14.59375 
Q 28.65625 6.59375 39.40625 6.59375 
Q 50.140625 6.59375 56.421875 14.59375 
Q 62.703125 22.609375 62.703125 36.375 
Q 62.703125 50.203125 56.421875 58.203125 
Q 50.140625 66.21875 39.40625 66.21875 
z
M 39.40625 74.21875 
Q 54.734375 74.21875 63.90625 63.9375 
Q 73.09375 53.65625 73.09375 36.375 
Q 73.09375 19.140625 63.90625 8.859375 
Q 54.734375 -1.421875 39.40625 -1.421875 
Q 24.03125 -1.421875 14.8125 8.828125 
Q 5.609375 19.09375 5.609375 36.375 
Q 5.609375 53.65625 14.8125 63.9375 
Q 24.03125 74.21875 39.40625 74.21875 
z
" id="DejaVuSans-79"/>
      <path d="M 18.109375 8.203125 
L 18.109375 -20.796875 
L 9.078125 -20.796875 
L 9.078125 54.6875 
L 18.109375 54.6875 
L 18.109375 46.390625 
Q 20.953125 51.265625 25.265625 53.625 
Q 29.59375 56 35.59375 56 
Q 45.5625 56 51.78125 48.09375 
Q 58.015625 40.1875 58.015625 27.296875 
Q 58.015625 14.40625 51.78125 6.484375 
Q 45.5625 -1.421875 35.59375 -1.421875 
Q 29.59375 -1.421875 25.265625 0.953125 
Q 20.953125 3.328125 18.109375 8.203125 
z
M 48.6875 27.296875 
Q 48.6875 37.203125 44.609375 42.84375 
Q 40.53125 48.484375 33.40625 48.484375 
Q 26.265625 48.484375 22.1875 42.84375 
Q 18.109375 37.203125 18.109375 27.296875 
Q 18.109375 17.390625 22.1875 11.75 
Q 26.265625 6.109375 33.40625 6.109375 
Q 40.53125 6.109375 44.609375 11.75 
Q 48.6875 17.390625 48.6875 27.296875 
z
" id="DejaVuSans-112"/>
     </defs>
     <g transform="translate(221.06375 69.993906)scale(0.1 -0.1)">
      <use xlink:href="#DejaVuSans-67"/>
      <use x="69.824219" xlink:href="#DejaVuSans-43"/>
      <use x="153.613281" xlink:href="#DejaVuSans-43"/>
      <use x="237.402344" xlink:href="#DejaVuSans-32"/>
      <use x="269.189453" xlink:href="#DejaVuSans-38"/>
      <use x="347.167969" xlink:href="#DejaVuSans-32"/>
      <use x="378.955078" xlink:href="#DejaVuSans-79"/>
      <use x="457.666016" xlink:href="#DejaVuSans-112"/>
      <use x="521.142578" xlink:href="#DejaVuSans-101"/>
      <use x="582.666016" xlink:href="#DejaVuSans-110"/>
      <use x="646.044922" xlink:href="#DejaVuSans-77"/>
      <use x="732.324219" xlink:href="#DejaVuSans-80"/>
     </g>
    </g>
   </g>
  </g>
 </g>
 <defs>
  <clipPath id="p3d4cfdf919">
   <rect height="108.72" width="223.2" x="50.14375" y="9.361094"/>
  </clipPath>
 </defs>
</svg>
